# xmcd
#
# Track frame offsets: 
#        150
#        15600
#        32927
#        47221
#        65376
#        89869
#        102548
#        118411
#        128429
#        154280
#
# Disc length: 2247 seconds
#
# Revision: 0
# Processed by: cddbd v1.5.2PL0 Copyright (c) Steve Scherf et al.
# Submitted via: ExactAudioCopy v1.0b1
#
DISCID=8f08c50a
DTITLE=ALABAMA BLACK SNAKES - 2011   Rhythm 'N Loose
DYEAR=2011
DGENRE=General Rock
TTITLE0=No Man
TTITLE1=Hot Pants
TTITLE2=Interstate Love
TTITLE3=Keep On Rollin'
TTITLE4=Spit On Your Grave
TTITLE5=Lord It's A Good Day
TTITLE6=You Make Me Go Insane
TTITLE7=Ain't It Queer
TTITLE8=Jungle Shit
TTITLE9=Sky Is Clearing
EXTD=
EXTT0=
EXTT1=
EXTT2=
EXTT3=
EXTT4=
EXTT5=
EXTT6=
EXTT7=
EXTT8=
EXTT9=
PLAYORDER=
